#!OML:ASF F:\VICON\USERDATA\INSTALL\rory3\rory3.ASF
:FULLY-SPECIFIED
:DEGREES
79
root 0.556368 17.7388 5.90371 0.262248 4.43386 -1.83768
lowerback 16.8276 -1.00214 0.000200265
upperback 2.67527 -1.41164 -1.34886
thorax -6.60109 -0.697528 -1.12472
lowerneck -7.28652 -0.793018 -1.55663
upperneck -7.22256 -0.814005 3.57414
head -1.00291 -0.38855 1.35883
rclavicle 8.54774e-015 1.59028e-014
rhumerus -44.0252 12.3278 -87.4724
rradius 84.8144
rwrist -3.45935
rhand -43.3742 38.3018
rfingers 7.12502
rthumb -16.2187 8.96027
lclavicle 8.54774e-015 1.59028e-014
lhumerus -36.439 -11.9002 86.5505
lradius 104.925
lwrist 30.7692
lhand -37.9924 10.2866
lfingers 7.12502
lthumb -11.0319 39.9767
rfemur -1.90707 -8.55924 24.0845
rtibia 93.0502
rfoot 27.4129 -8.61248
rtoes 22.5237
lfemur -20.7762 -4.26387 -21.7109
ltibia 34.7455
lfoot -7.82313 -2.00802
ltoes -17.3509
80
root 0.591635 17.6833 6.47469 0.100639 3.5182 -1.04776
lowerback 16.3921 -0.682557 -0.687361
upperback 2.95682 -1.12552 -1.67321
thorax -6.05023 -0.547043 -1.14765
lowerneck -7.13987 -0.848616 -1.69165
upperneck -7.74177 -0.855552 3.86422
head -1.18862 -0.412862 1.4795
rclavicle 2.28602e-014 1.27222e-014
rhumerus -44.9716 10.7718 -86.9008
rradius 83.4687
rwrist -2.71186
rhand -43.6168 38.8991
rfingers 7.12502
rthumb -16.4523 9.57677
lclavicle 2.28602e-014 1.27222e-014
lhumerus -33.4898 -12.7111 86.3239
lradius 105.485
lwrist 30.2329
lhand -36.0132 10.992
lfingers 7.12502
lthumb -9.12259 40.7747
rfemur -4.03299 -8.22519 22.3856
rtibia 96.5903
rfoot 26.7905 -8.54117
rtoes 23.6881
lfemur -19.24 -3.69943 -22.8301
ltibia 36.4612
lfoot -10.6348 -1.36819
ltoes -14.579
81
root 0.585413 17.5816 6.93892 -0.172545 4.44556 0.181244
lowerback 17.515 -0.902275 -1.95517
upperback 2.94752 -1.68843 -1.98429
thorax -6.65233 -0.792754 -0.623521
lowerneck -7.32326 -0.921487 -1.85128
upperneck -7.70288 -0.929447 4.17548
head -1.14248 -0.445918 1.60501
rclavicle -1.59028e-014 -1.11319e-014
rhumerus -46.0088 9.29349 -86.3154
rradius 82.0015
rwrist -1.49438
rhand -43.9196 38.824
rfingers 7.12502
rthumb -16.7438 9.52603
lclavicle -1.59028e-014 -1.11319e-014
lhumerus -30.5629 -13.578 86.033
lradius 105.91
lwrist 29.8331
lhand -37.5669 10.2103
lfingers 7.12502
lthumb -10.6216 39.9218
rfemur -6.5573 -9.85729 20.1817
rtibia 100.315
rfoot 25.6356 -7.93379
rtoes 24.819
lfemur -17.8454 -4.14352 -24.3356
ltibia 37.7232
lfoot -12.3625 -1.64266
ltoes -11.9442
82
root 0.575898 17.5056 7.42719 -0.162007 4.93266 1.75348
lowerback 17.9754 -0.876811 -3.70667
upperback 2.97936 -2.02966 -2.37671
thorax -6.82053 -0.919079 0.0338809
lowerneck -7.01321 -0.995518 -1.95008
upperneck -8.16804 -0.998943 4.45589
head -1.33861 -0.487452 1.71887
rclavicle 1.51076e-014 3.18055e-015
rhumerus -47.0385 7.72123 -85.706
rradius 80.4371
rwrist -0.0294506
rhand -44.173 38.54
rfingers 7.12502
rthumb -16.9877 9.2628
lclavicle 1.51076e-014 3.18055e-015
lhumerus -27.5799 -14.4926 85.6798
lradius 106.374
lwrist 29.5969
lhand -37.2483 9.35278
lfingers 7.12502
lthumb -10.3142 39.0799
rfemur -9.52233 -11.0473 17.685
rtibia 103.697
rfoot 24.6492 -7.09158
rtoes 24.9334
lfemur -16.3384 -4.13942 -26.1048
ltibia 38.5165
lfoot -14.0257 -0.920983
ltoes -13.89
83
root 0.570374 17.4467 7.9115 0.199232 5.2332 3.37129
lowerback 17.966 -0.803372 -5.43948
upperback 3.03742 -2.2859 -2.76841
thorax -6.69363 -1.01001 0.649631
lowerneck -6.7294 -1.07068 -2.14657
upperneck -8.93604 -1.05178 4.7574
head -1.63002 -0.520954 1.86256
rclavicle 3.77691e-015 4.21423e-014
rhumerus -48.1038 6.20701 -85.078
rradius 79.2314
rwrist 1.19524
rhand -44.6279 38.1263
rfingers 7.12502
rthumb -17.4256 8.88735
lclavicle 3.77691e-015 4.21423e-014
lhumerus -24.4696 -15.2533 85.3341
lradius 106.908
lwrist 29.285
lhand -36.0852 7.53806
lfingers 7.12502
lthumb -9.19204 37.3177
rfemur -12.9419 -12.0167 15.3021
rtibia 106.754
rfoot 24.1372 -6.56712
rtoes 25.729
lfemur -14.9019 -3.90054 -27.8586
ltibia 39.1145
lfoot -15.5306 -0.631412
ltoes -16.0937
84
root 0.561718 17.3919 8.369 0.804132 5.54917 3.8916
lowerback 17.8307 -0.895866 -6.06041
upperback 3.08834 -2.51219 -2.81766
thorax -6.52886 -1.11114 0.993314
lowerneck -7.01334 -1.16156 -2.25363
upperneck -9.50283 -1.14042 4.85736
head -1.76203 -0.564449 1.91841
rclavicle -3.97569e-015 -9.54166e-015
rhumerus -48.9225 4.92138 -84.4298
rradius 78.5394
rwrist 1.78178
rhand -44.959 37.3791
rfingers 7.12502
rthumb -17.7442 8.16874
lclavicle -3.97569e-015 -9.54166e-015
lhumerus -21.0858 -15.8949 84.949
lradius 107.331
lwrist 29.1347
lhand -35.9344 7.07928
lfingers 7.12502
lthumb -9.04648 36.8653
rfemur -16.9969 -12.924 14.6438
rtibia 109.336
rfoot 23.5533 -6.59016
rtoes 28.0522
lfemur -13.7762 -3.79781 -28.311
ltibia 39.5435
lfoot -16.6206 -1.12837
ltoes -17.2072
85
root 0.554927 17.347 8.82163 1.23256 5.92434 3.37339
lowerback 17.818 -1.18194 -5.59799
upperback 3.13899 -2.77816 -2.57908
thorax -6.46188 -1.25016 1.04754
lowerneck -7.29688 -1.1462 -2.34128
upperneck -9.85009 -1.10142 4.84559
head -1.82865 -0.541449 1.9326
rclavicle 1.37161e-014 2.54444e-014
rhumerus -49.4574 3.90345 -83.8348
rradius 77.8477
rwrist 1.96178
rhand -45.0273 37.1611
rfingers 7.12502
rthumb -17.81 7.95667
lclavicle 1.37161e-014 2.54444e-014
lhumerus -17.908 -16.3731 84.524
lradius 107.969
lwrist 29.0126
lhand -37.9308 10.2232
lfingers 7.12502
lthumb -10.9725 39.9164
rfemur -21.0791 -13.6522 15.5978
rtibia 111.243
rfoot 22.4281 -6.73711
rtoes 28.7217
lfemur -12.6705 -3.58045 -27.56
ltibia 39.7857
lfoot -17.3459 -1.41498
ltoes -20.2508
86
root 0.567685 17.3456 9.31272 1.39833 6.12363 3.0575
lowerback 17.8368 -1.48304 -5.03933
upperback 3.09565 -3.06971 -2.53936
thorax -6.53084 -1.40058 0.843002
lowerneck -7.17603 -0.958257 -2.37714
upperneck -9.9313 -0.841887 4.92785
head -1.88607 -0.414111 1.97065
rclavicle -4.77083e-015 1.59028e-014
rhumerus -50.3862 3.14317 -83.5459
rradius 77.2882
rwrist 1.87482
rhand -45.2731 37.4371
rfingers 7.12502
rthumb -18.0464 8.2543
lclavicle -4.77083e-015 1.59028e-014
lhumerus -15.4827 -16.5627 84.1591
lradius 108.643
lwrist 28.7732
lhand -38.4071 11.8216
lfingers 7.12502
lthumb -11.4319 41.49
rfemur -24.4455 -13.7649 16.3763
rtibia 112.218
rfoot 20.52 -6.86296
rtoes 24.802
lfemur -10.939 -3.11102 -27.0846
ltibia 39.7355
lfoot -17.8906 -1.6456
ltoes -22.8337
87
root 0.587612 17.3764 9.83721 1.49881 5.98034 3.33837
lowerback 17.7208 -1.65812 -5.03868
upperback 2.94555 -3.31246 -2.69338
thorax -6.62854 -1.51586 0.731266
lowerneck -6.75984 -0.703801 -2.41932
upperneck -9.92914 -0.498696 5.02361
head -1.97065 -0.248156 2.01568
rclavicle -3.26007e-014 -9.54166e-015
rhumerus -51.6461 2.60856 -83.3919
rradius 76.9666
rwrist 1.5119
rhand -45.6554 37.9368
rfingers 7.12502
rthumb -18.4142 8.78838
lclavicle -3.26007e-014 -9.54166e-015
lhumerus -13.588 -16.5113 83.9558
lradius 109.117
lwrist 28.2276
lhand -37.2115 12.4841
lfingers 7.12502
lthumb -10.2786 42.2129
rfemur -27.2778 -13.3014 16.3915
rtibia 112.494
rfoot 17.7365 -7.25084
rtoes 18.3196
lfemur -8.53664 -2.47857 -27.2875
ltibia 39.2454
lfoot -18.2547 -1.98662
ltoes -24.7455
88
root 0.610581 17.4092 10.3779 1.8124 5.61213 3.54269
lowerback 17.0694 -1.82778 -5.05686
upperback 2.7355 -3.50861 -2.71508
thorax -6.49254 -1.61394 0.740815
lowerneck -6.01496 -0.491508 -2.57696
upperneck -10.0865 -0.219608 4.93589
head -2.16267 -0.11286 2.02362
rclavicle -2.88238e-014 -1.59028e-014
rhumerus -52.9649 2.46975 -83.1933
rradius 77.0932
rwrist 0.638485
rhand -45.8197 37.6101
rfingers 7.12502
rthumb -18.5723 8.47666
lclavicle -2.88238e-014 -1.59028e-014
lhumerus -12.1845 -16.2509 83.965
lradius 109.669
lwrist 27.0465
lhand -37.5512 8.43565
lfingers 7.12502
lthumb -10.6063 38.148
rfemur -30.1685 -12.5143 16.5447
rtibia 112.303
rfoot 16.3089 -7.26074
rtoes 17.3895
lfemur -6.32617 -1.84854 -27.4137
ltibia 38.2785
lfoot -18.0033 -2.2794
ltoes -27.0483
89
root 0.606821 17.4461 10.8864 1.99558 5.83796 3.63687
lowerback 17.1678 -2.17178 -5.14657
upperback 2.44364 -3.9969 -2.64522
thorax -6.82754 -1.83501 0.982295
lowerneck -5.49683 -0.356671 -2.34516
upperneck -10.0725 -0.0913848 4.44136
head -2.24967 -0.0544384 1.82241
rclavicle -6.75868e-014 -7.95139e-015
rhumerus -54.2349 2.54814 -83.1723
rradius 77.3819
rwrist -0.170396
rhand -45.647 36.8939
rfingers 7.12502
rthumb -18.4061 7.74475
lclavicle -6.75868e-014 -7.95139e-015
lhumerus -11.6596 -15.8157 84.0362
lradius 110.589
lwrist 25.673
lhand -37.2647 7.17917
lfingers 7.12502
lthumb -10.33 36.9055
rfemur -32.9479 -12.2918 16.9154
rtibia 111.717
rfoot 15.8392 -7.43103
rtoes 20.4106
lfemur -4.2357 -1.84082 -27.266
ltibia 36.8422
lfoot -16.5917 -2.90934
ltoes -28.2939
90
root 0.598294 17.5019 11.4061 2.14423 6.00831 3.9003
lowerback 17.5024 -2.46813 -5.38345
upperback 1.97146 -4.48465 -2.63393
thorax -7.47948 -2.03779 1.26404
lowerneck -5.14229 -0.199912 -2.05722
upperneck -9.64809 0.0552607 3.91479
head -2.17187 0.0173636 1.59603
rclavicle 4.01545e-014 2.62396e-014
rhumerus -55.7679 2.66485 -83.1936
rradius 77.5786
rwrist -1.09775
rhand -44.9838 37.3524
rfingers 7.12502
rthumb -17.7681 8.14418
lclavicle 4.01545e-014 2.62396e-014
lhumerus -11.8991 -15.6051 84.2837
lradius 111.728
lwrist 25.3029
lhand -37.3001 5.54895
lfingers 7.12502
lthumb -10.3641 35.2735
rfemur -35.673 -11.9027 17.1512
rtibia 110.614
rfoot 16.4748 -7.36158
rtoes 17.9504
lfemur -1.78876 -1.68784 -27.254
ltibia 35.0009
lfoot -14.7211 -3.59866
ltoes -29.5644
91
root 0.598859 17.5927 11.9461 2.16299 6.27635 4.30534
lowerback 17.8103 -2.78016 -5.7175
upperback 1.69471 -4.9968 -2.58383
thorax -7.88916 -2.25453 1.64611
lowerneck -5.14771 0.0492107 -1.96408
upperneck -9.22526 0.345616 3.47184
head -2.03791 0.169421 1.43122
rclavicle -5.725e-014 -1.11319e-014
rhumerus -56.9465 2.85319 -83.0831
rradius 77.8031
rwrist -1.97368
rhand -44.2525 37.5099
rfingers 7.12502
rthumb -17.0642 8.23931
lclavicle -5.725e-014 -1.11319e-014
lhumerus -11.7021 -15.5065 84.6324
lradius 112.869
lwrist 25.8166
lhand -37.6395 5.30036
lfingers 7.12502
lthumb -10.6916 35.0083
rfemur -37.7265 -11.4407 17.0675
rtibia 108.826
rfoot 16.5925 -7.09473
rtoes 16.7858
lfemur 1.0339 -1.54587 -27.4079
ltibia 32.9975
lfoot -12.5569 -4.44054
ltoes -30.3087
92
root 0.60267 17.7024 12.4957 2.2845 6.42471 4.3643
lowerback 17.7167 -3.11739 -5.73706
upperback 1.57619 -5.42944 -2.39967
thorax -7.91893 -2.45658 1.95091
lowerneck -5.43906 0.276023 -1.91048
upperneck -8.87143 0.610116 2.95572
head -1.87583 0.311949 1.25204
rclavicle 2.70347e-014 -7.95139e-015
rhumerus -57.7276 3.1413 -83.0082
rradius 78.1281
rwrist -2.22857
rhand -44.3364 37.3935
rfingers 7.12502
rthumb -17.145 8.12995
lclavicle 2.70347e-014 -7.95139e-015
lhumerus -11.1142 -15.2774 84.8003
lradius 113.837
lwrist 26.6779
lhand -37.8006 6.5275
lfingers 7.12502
lthumb -10.8469 36.2274
rfemur -39.3109 -10.6594 17.3397
rtibia 106.55
rfoot 15.3881 -6.9834
rtoes 14.4577
lfemur 3.65315 -1.39206 -27.1608
ltibia 30.9348
lfoot -9.81592 -5.3219
ltoes -30.5137
93
root 0.600875 17.7848 13.0341 2.61354 6.38756 4.46584
lowerback 17.3982 -3.4176 -5.85821
upperback 1.35546 -5.82479 -2.23129
thorax -7.92699 -2.63763 2.27255
lowerneck -5.63282 0.521299 -1.72811
upperneck -8.52529 0.891217 2.35477
head -1.73138 0.457837 1.02718
rclavicle -5.54609e-014 -1.66979e-014
rhumerus -58.4491 3.53451 -83.071
rradius 78.6006
rwrist -2.41227
rhand -44.5363 36.548
rfingers 7.12502
rthumb -17.3374 7.30125
lclavicle -5.54609e-014 -1.66979e-014
lhumerus -10.7145 -14.867 84.8245
lradius 114.709
lwrist 28.2876
lhand -37.7769 6.81226
lfingers 7.12502
lthumb -10.824 36.5133
rfemur -41.0282 -9.71961 17.5438
rtibia 104.181
rfoot 13.4156 -7.03751
rtoes 12.3724
lfemur 6.0797 -1.26623 -26.9285
ltibia 28.7255
lfoot -6.6766 -6.03711
ltoes -31.645
